<?xml version="1.0" encoding="utf-8"?>
<!-- Generator: Adobe Illustrator 22.1.0, SVG Export Plug-In . SVG Version: 6.00 Build 0)  -->
<svg version="1.1" id="Layer_1" xmlns="http://www.w3.org/2000/svg" xmlns:xlink="http://www.w3.org/1999/xlink" x="0px" y="0px"
	 viewBox="0 0 405.8 154.5" style="enable-background:new 0 0 405.8 154.5;" xml:space="preserve">
<style type="text/css">
	.st0{fill:#6CAFB8;}
</style>
<g>
	<g>
		<path class="st0" d="M100.4,114.7c5,0,9-4,9-9V43H87v71.7H100.4z"/>
		<path class="st0" d="M363.6,11.9v22.3H377c4.9,0,8.9-4,8.9-8.9V11.9H363.6z"/>
		<path class="st0" d="M377,114.7c4.9,0,9-4,9-9V43h-22.4v71.7H377z"/>
		<path class="st0" d="M217.1,64.7c0-4.5,3.6-8.1,8.1-8.1h12.1v21h-20.2L217.1,64.7L217.1,64.7z M217.1,87.2h38.4V59.8
			c0-9.3-7.5-16.8-16.8-16.8h-26.3c-9.3,0-16.8,7.5-16.8,16.8v38.1c0,9.3,7.5,16.8,16.8,16.8H251h0.1V107c0-2.8-2.3-5.1-5.1-5.1
			h-20.4c-4.6,0-8.4-3.8-8.4-8.4v-6.3H217.1z"/>
		<path class="st0" d="M162.6,101.9h-12.1c-4.5,0-8.1-3.6-8.1-8.1V64.7c0-4.5,3.6-8.1,8.1-8.1h12.1v0.9V101.9z M185,50.2V43h-42.7
			H139c0.1,0.1-0.1,0-0.1,0h-2.2c-9.3,0-16.8,7.5-16.8,16.8v38.1c0,9.3,7.5,16.8,16.8,16.8h25.9v6.7c0,4.6-3.8,8.4-8.4,8.4h-26.6
			c-2.8,0-5.1,2.3-5.1,5.1v7.7h45.7c9.3,0,16.8-7.5,16.8-16.8V50.2L185,50.2z"/>
		<path class="st0" d="M298.9,101.9h-2.4l0,0c-4.3,0-7.7-3.3-8.1-7.5c0-0.3-0.1-37.8-0.1-37.8l0,0l0,0H304V48c0-2.8-2.3-5.1-5.1-5.1
			h-10.5l0,0l0,0V23.3H275c-4.9,0-9,4-9,9v66.5c0,9.3,7.5,16,16.8,16H304V107C304,104.2,301.7,101.9,298.9,101.9"/>
		<path class="st0" d="M348,101.9h-2.4l0,0c-4.3,0-7.7-3.3-8.1-7.5c0-0.3-0.1-37.8-0.1-37.8l0,0l0,0H353V48c0-2.8-2.3-5.1-5.1-5.1
			h-10.5l0,0l0,0V23.3H324c-4.9,0-9,4-9,9v66.5c0,9.3,7.5,16,16.8,16H353V107C353.1,104.2,350.8,101.9,348,101.9"/>
		<path class="st0" d="M87,11.9v22.3h13.4c4.9,0,8.9-4,8.9-8.9V11.9H87z"/>
		<path class="st0" d="M51.1,43c-4.9,0-8.9,4-8.9,8.9v4.5c0,5-4,9-9,9h-4.5c-4.9,0-8.9,4-8.9,8.9v40.4h13.4c4.9,0,9-4,9-9V73.4
			c0.2-4.4,3.9-8,8.4-8h17c5,0,9-4,9-9V43H51.1z"/>
	</g>
</g>
</svg>
