<svg width="32" height="32" viewBox="0 0 32 32" fill="none" xmlns="http://www.w3.org/2000/svg">
<path d="M13.319 17.8852V15.8123C13.319 14.8888 12.5945 14.5965 11.8054 14.5965C11.2602 14.5965 10.715 14.756 10.2918 15.1014L10.6361 15.6662C10.9302 15.4137 11.2746 15.2875 11.6476 15.2875C12.1067 15.2875 12.408 15.5001 12.408 15.8256V16.2575C12.1784 16.005 11.7695 15.8655 11.3104 15.8655C10.7581 15.8655 10.1053 16.1512 10.1053 16.9019C10.1053 17.6194 10.7581 17.9649 11.3104 17.9649C11.7624 17.9649 12.1712 17.8121 12.408 17.553V17.8852H13.319ZM11.6763 17.3936C11.3176 17.3936 11.0235 17.2208 11.0235 16.9218C11.0235 16.6096 11.3176 16.4368 11.6763 16.4368C11.9704 16.4368 12.2573 16.5299 12.408 16.7159V17.1145C12.2573 17.3005 11.9704 17.3936 11.6763 17.3936Z" fill="#1F5A9F"/>
<path d="M15.2753 17.9649C15.9855 17.9649 16.4159 17.6792 16.6454 17.3803L16.05 16.8687C15.885 17.0813 15.634 17.2142 15.3183 17.2142C14.766 17.2142 14.3786 16.8355 14.3786 16.2774C14.3786 15.7193 14.766 15.3473 15.3183 15.3473C15.634 15.3473 15.885 15.4668 16.05 15.6927L16.6454 15.1745C16.4159 14.8822 15.9855 14.5965 15.2753 14.5965C14.2064 14.5965 13.4389 15.2941 13.4389 16.2774C13.4389 17.2673 14.2064 17.9649 15.2753 17.9649Z" fill="#1F5A9F"/>
<path d="M21.8948 17.8852V15.5665C21.8948 14.9088 21.5146 14.5965 20.8761 14.5965C20.3453 14.5965 19.8862 14.8888 19.6853 15.1812C19.5562 14.8157 19.2334 14.5965 18.7241 14.5965C18.1932 14.5965 17.7341 14.9021 17.5906 15.0948V14.6762H16.6796V17.8852H17.5906V15.726C17.7269 15.5466 17.9924 15.3473 18.308 15.3473C18.681 15.3473 18.8245 15.5599 18.8245 15.8588V17.8852H19.7427V15.7193C19.8718 15.5466 20.1372 15.3473 20.4601 15.3473C20.8331 15.3473 20.9765 15.5599 20.9765 15.8588V17.8852H21.8948Z" fill="#1F5A9F"/>
<path fill-rule="evenodd" clip-rule="evenodd" d="M25.1719 6.82816L23.9014 2.08671L19.4053 3.29144L16.1138 0L12.6428 3.47101L7.90141 2.20054L6.69667 6.69671L2.20055 7.90144L3.471 12.6428L0 16.1138L3.29142 19.4053L2.08668 23.9014L6.82815 25.1719L8.09863 29.9134L12.5948 28.7086L15.8861 32L19.3571 28.529L24.0986 29.7995L25.3033 25.3034L29.7995 24.0986L28.529 19.3571L32 15.8861L28.7086 12.5948L29.9133 8.09862L25.1719 6.82816ZM15.9946 27.6281L15.7817 27.571L4.42907 16.2184L4.37197 16.0053L16.0053 4.37197L16.2183 4.42906L27.571 15.7817L27.6281 15.9947L15.9946 27.6281Z" fill="#1F5A9F"/>
<path fill-rule="evenodd" clip-rule="evenodd" d="M16 24.1404C20.4958 24.1404 24.1404 20.4958 24.1404 16C24.1404 11.5042 20.4958 7.85966 16 7.85966C11.5042 7.85966 7.85966 11.5042 7.85966 16C7.85966 20.4958 11.5042 24.1404 16 24.1404ZM16 22.4562C19.5656 22.4562 22.4562 19.5656 22.4562 16C22.4562 12.4344 19.5656 9.54387 16 9.54387C12.4344 9.54387 9.54387 12.4344 9.54387 16C9.54387 19.5656 12.4344 22.4562 16 22.4562Z" fill="#1F5A9F"/>
</svg>
