<svg width="16" height="16" viewBox="0 0 16 16" fill="none" xmlns="http://www.w3.org/2000/svg">
<path fill-rule="evenodd" clip-rule="evenodd" d="M8 16C12.4183 16 16 12.4183 16 8C16 3.58173 12.4183 0 8 0C3.58167 0 0 3.58173 0 8C0 12.4183 3.58167 16 8 16ZM8 15C11.866 15 15 11.866 15 8C15 4.13403 11.866 1 8 1C4.13403 1 1 4.13403 1 8C1 11.866 4.13403 15 8 15Z" fill="#1F5A9F"/>
<path fill-rule="evenodd" clip-rule="evenodd" d="M9.934 13.2096C10.5748 11.928 11 10.0876 11 8C11 5.91244 10.5748 4.07196 9.934 2.79036C9.26329 1.44895 8.52174 1 8 1C7.47826 1 6.73671 1.44895 6.066 2.79036C5.4252 4.07196 5 5.91244 5 8C5 10.0876 5.4252 11.928 6.066 13.2096C6.73671 14.5511 7.47826 15 8 15C8.52174 15 9.26329 14.5511 9.934 13.2096ZM8 16C10.2091 16 12 12.4183 12 8C12 3.58172 10.2091 0 8 0C5.79086 0 4 3.58172 4 8C4 12.4183 5.79086 16 8 16Z" fill="#1F5A9F"/>
<path d="M1 7.5H15V8.5H1V7.5Z" fill="#1F5A9F"/>
<path d="M2 4H14L15 5H1L2 4Z" fill="#1F5A9F"/>
<path d="M1 11H15L14 12H2L1 11Z" fill="#1F5A9F"/>
</svg>
