<svg width="32" height="32" viewBox="0 0 32 32" fill="none" xmlns="http://www.w3.org/2000/svg">
<path fill-rule="evenodd" clip-rule="evenodd" d="M18.5083 22.1359C21.6261 21.7677 24.9422 20.6341 24.9422 15.2489C24.9422 13.7182 24.4032 12.4709 23.5253 11.5071C23.6669 11.1389 24.12 9.74994 23.3544 7.82288C23.3544 7.82288 22.2207 7.45425 19.557 9.23969C18.4233 8.92825 17.1764 8.7295 16.0144 8.7295C14.8236 8.7295 13.5762 8.92825 12.4708 9.23969C9.77819 7.45425 8.64456 7.82288 8.64456 7.82288C7.8795 9.74994 8.33313 11.1389 8.47469 11.5071C7.59588 12.4708 7.05737 13.7182 7.05737 15.2489C7.05737 20.6341 10.3734 21.7677 13.4913 22.1359C13.0948 22.4766 12.7262 23.1279 12.5846 24.0351C11.7907 24.3749 9.72156 25.0271 8.47469 22.8731C8.47469 22.8731 7.7375 21.5412 6.34894 21.4562C6.34894 21.4562 4.95994 21.4279 6.23562 22.3057C6.23562 22.3057 7.17062 22.7315 7.79456 24.3466C7.79456 24.3466 8.64456 27.0396 12.5557 26.1891V28.598C12.5557 28.9671 12.2726 29.3919 11.5642 29.2786C6.00869 27.4361 2.0125 22.1641 2.0125 15.9856C2.0125 8.24769 8.276 1.98425 16.0144 1.98425C23.7236 1.98425 30.0158 8.24775 29.9875 15.9856C29.9875 22.1641 25.9909 27.4078 20.4357 29.2786C19.7269 29.4202 19.4437 28.9955 19.4437 28.598V24.7156C19.4438 23.4111 19.018 22.5616 18.5083 22.1359ZM32 16.0144C32 7.17063 24.8289 0 16.0144 0C7.17063 0 0 7.17063 0 16.0144C0 24.8289 7.17063 32 16.0144 32C24.8289 32 32 24.8289 32 16.0144Z" fill="#1F5A9F"/>
</svg>
