<svg width="16" height="16" viewBox="0 0 16 16" fill="none" xmlns="http://www.w3.org/2000/svg">
<path fill-rule="evenodd" clip-rule="evenodd" d="M9.25416 11.0679C10.8131 10.8838 12.4711 10.317 12.4711 7.62444C12.4711 6.85912 12.2016 6.23544 11.7627 5.75353C11.8335 5.56947 12.06 4.87497 11.6772 3.91144C11.6772 3.91144 11.1104 3.72713 9.7785 4.61984C9.21166 4.46413 8.58819 4.36475 8.00719 4.36475C7.41178 4.36475 6.78809 4.46413 6.23541 4.61984C4.88909 3.72713 4.32228 3.91144 4.32228 3.91144C3.93975 4.87497 4.16656 5.56947 4.23734 5.75353C3.79794 6.23541 3.52869 6.85912 3.52869 7.62444C3.52869 10.317 5.18672 10.8838 6.74563 11.0679C6.54738 11.2383 6.36309 11.564 6.29228 12.0175C5.89534 12.1875 4.86078 12.5136 4.23734 11.4365C4.23734 11.4365 3.86875 10.7706 3.17447 10.7281C3.17447 10.7281 2.47997 10.714 3.11781 11.1529C3.11781 11.1529 3.58531 11.3658 3.89728 12.1733C3.89728 12.1733 4.32228 13.5198 6.27787 13.0945V14.299C6.27787 14.4836 6.13631 14.6959 5.78209 14.6393C3.00434 13.718 1.00625 11.0821 1.00625 7.99281C1.00625 4.12384 4.138 0.992125 8.00719 0.992125C11.8618 0.992125 15.0079 4.12388 14.9937 7.99281C14.9937 11.0821 12.9954 13.7039 10.2179 14.6393C9.86344 14.7101 9.72184 14.4977 9.72184 14.299V12.3578C9.72188 11.7055 9.509 11.2808 9.25416 11.0679ZM16 8.00719C16 3.58531 12.4145 0 8.00719 0C3.58531 0 0 3.58531 0 8.00719C0 12.4145 3.58531 16 8.00719 16C12.4145 16 16 12.4145 16 8.00719Z" fill="#1F5A9F"/>
</svg>
