<svg width="31" height="32" viewBox="0 0 31 32" fill="none" xmlns="http://www.w3.org/2000/svg">
<path d="M30.0485 0.151651C29.8346 0.0444176 29.5138 -0.0628159 29.2999 0.0444176L18.7135 4.65546L9.83793 0.795052C9.62406 0.687819 9.41019 0.687819 9.19632 0.795052L0.427736 4.86993C0.106934 4.97716 1.27475e-08 5.29886 1.27475e-08 5.62056V31.2494C1.27475e-08 31.5711 0.106934 31.7855 0.427736 31.8928C0.53467 32 0.748538 32 0.855472 32C0.962406 32 1.06934 32 1.17627 31.8928L9.62406 27.7107L18.3927 31.7855C18.6065 31.8928 18.8204 31.8928 19.0343 31.7855H19.1412L29.9415 27.2817C30.2623 27.1745 30.4762 26.8528 30.4762 26.5311V0.795052C30.3693 0.580585 30.2623 0.366118 30.0485 0.151651ZM8.55472 26.4239L1.49708 29.9626V6.15673L8.55472 2.93972V26.4239ZM17.9649 29.8553L10.1587 26.3166V2.72525L17.9649 6.15673V29.8553ZM28.7652 25.8877L19.5689 29.7481V6.04949L28.7652 2.08185V25.8877Z" fill="#1F5A9F"/>
</svg>
